<?xml version="1.0" encoding="utf-8"?>
<!-- Generator: Adobe Illustrator 16.0.0, SVG Export Plug-In . SVG Version: 6.00 Build 0)  -->
<!DOCTYPE svg PUBLIC "-//W3C//DTD SVG 1.1//EN" "http://www.w3.org/Graphics/SVG/1.1/DTD/svg11.dtd">
<svg version="1.1" id="Layer_1" xmlns="http://www.w3.org/2000/svg" xmlns:xlink="http://www.w3.org/1999/xlink" x="0px" y="0px"
	 width="220.749px" height="138.445px" viewBox="0 0 220.749 138.445" enable-background="new 0 0 220.749 138.445"
	 xml:space="preserve">
<rect x="-43.5" y="37.005" display="none" fill="#E7E7E7" width="792" height="612"/>
<g opacity="0.5">
	<path id="outline_7_" d="M111.899,41.965h21.458v21.936h10.85c5.01,0,10.164-0.893,14.908-2.501c2.332-0.79,4.948-1.89,7.249-3.274
		c-3.029-3.955-4.576-8.948-5.031-13.871c-0.618-6.695,0.732-15.409,5.263-20.65l2.256-2.608l2.688,2.16
		c6.766,5.438,12.458,13.035,13.462,21.695c8.147-2.397,17.714-1.83,24.896,2.316l2.948,1.699l-1.551,3.028
		c-6.074,11.854-18.772,15.527-31.188,14.877c-18.579,46.272-59.024,68.18-108.066,68.18c-25.336,0-48.582-9.472-61.819-31.951
		l-0.217-0.367l-1.929-3.924c-4.474-9.895-5.96-20.734-4.952-31.566l0.302-3.244h18.35V41.966h21.458V20.508H86.15V-0.951h25.75
		V41.965z"/>
	<g display="none">
		<path display="inline" fill="#394D54" d="M29.499,110.88c2.741,0,5.354-0.072,7.837-0.212c0.217-0.011,0.424-0.028,0.638-0.042
			c0.002,0,0.003,0,0.005,0c6.313-0.39,11.777-1.232,16.341-2.535c0.001-0.001,0.002-0.001,0.003-0.001
			c0.83-0.237,1.633-0.488,2.404-0.754c0.862-0.298,1.318-1.24,1.02-2.102c-0.298-0.862-1.239-1.319-2.102-1.019
			c-5.796,2.008-13.443,3.114-22.814,3.321c-0.001,0-0.002,0-0.002,0c-4.769,0.106-9.982-0.02-15.636-0.383c0,0,0,0,0,0
			c-0.289-0.018-0.573-0.034-0.865-0.054c-0.907-0.059-1.697,0.626-1.76,1.536c-0.063,0.909,0.626,1.698,1.537,1.76
			c1.154,0.079,2.289,0.146,3.408,0.206c0.179,0.009,0.351,0.015,0.527,0.024l0,0C23.342,110.792,26.5,110.88,29.499,110.88z"/>
	</g>
	<g id="Containers_8_">
		<path fill="#FFFFFF" d="M40.931,47.092h1.468v15.499h-1.468V47.092z M38.113,47.092h1.527v15.499h-1.527V47.092z M35.295,47.092
			h1.527v15.499h-1.527V47.092z M32.477,47.092h1.527v15.499h-1.527V47.092z M29.659,47.092h1.526v15.499h-1.526V47.092z
			 M26.901,47.092h1.467v15.499h-1.467V47.092z M25.351,45.542h18.597v18.598H25.351V45.542z"/>
		<path fill="#FFFFFF" d="M62.388,25.633h1.47v15.499h-1.47V25.633z M59.572,25.633h1.527v15.499h-1.527V25.633z M56.753,25.633
			h1.527v15.499h-1.527V25.633z M53.935,25.633h1.527v15.499h-1.527V25.633z M51.119,25.633h1.525v15.499h-1.525V25.633z
			 M48.359,25.633h1.467v15.499h-1.467V25.633z M46.809,24.083h18.599v18.598H46.809V24.083z"/>
		<path fill="#FFFFFF" d="M62.388,47.092h1.47v15.499h-1.47V47.092z M59.572,47.092h1.527v15.499h-1.527V47.092z M56.753,47.092
			h1.527v15.499h-1.527V47.092z M53.935,47.092h1.527v15.499h-1.527V47.092z M51.119,47.092h1.525v15.499h-1.525V47.092z
			 M48.359,47.092h1.467v15.499h-1.467V47.092z M46.809,45.542h18.599v18.598H46.809V45.542z"/>
		<path fill="#FFFFFF" d="M83.848,47.092h1.467v15.499h-1.467V47.092z M81.03,47.092h1.527v15.499H81.03V47.092z M78.213,47.092
			h1.526v15.499h-1.526V47.092z M75.394,47.092h1.527v15.499h-1.527V47.092z M72.576,47.092h1.527v15.499h-1.527V47.092z
			 M69.818,47.092h1.466v15.499h-1.466V47.092z M68.268,45.542h18.598v18.598H68.268V45.542z"/>
		<path fill="#FFFFFF" d="M83.848,25.633h1.467v15.499h-1.467V25.633z M81.03,25.633h1.527v15.499H81.03V25.633z M78.213,25.633
			h1.526v15.499h-1.526V25.633z M75.394,25.633h1.527v15.499h-1.527V25.633z M72.576,25.633h1.527v15.499h-1.527V25.633z
			 M69.818,25.633h1.466v15.499h-1.466V25.633z M68.268,24.083h18.598v18.598H68.268V24.083z"/>
		<path fill="#FFFFFF" d="M105.306,47.092h1.468v15.499h-1.468V47.092z M102.489,47.092h1.526v15.499h-1.526V47.092z M99.67,47.092
			h1.527v15.499H99.67V47.092z M96.852,47.092h1.527v15.499h-1.527V47.092z M94.036,47.092h1.525v15.499h-1.525V47.092z
			 M91.276,47.092h1.468v15.499h-1.468V47.092z M89.726,45.542h18.598v18.598H89.726V45.542L89.726,45.542z"/>
		<path fill="#FFFFFF" d="M105.306,25.633h1.468v15.499h-1.468V25.633z M102.489,25.633h1.526v15.499h-1.526V25.633z M99.67,25.633
			h1.527v15.499H99.67V25.633z M96.852,25.633h1.527v15.499h-1.527V25.633z M94.036,25.633h1.525v15.499h-1.525V25.633z
			 M91.276,25.633h1.468v15.499h-1.468V25.633z M89.726,24.083h18.598v18.598H89.726V24.083L89.726,24.083z"/>
		<path fill="#FFFFFF" d="M105.306,4.174h1.468v15.5h-1.468V4.174z M102.489,4.174h1.526v15.5h-1.526V4.174z M99.67,4.174h1.527
			v15.5H99.67V4.174z M96.852,4.174h1.527v15.5h-1.527V4.174z M94.036,4.174h1.525v15.5h-1.525V4.174z M91.276,4.174h1.468v15.5
			h-1.468V4.174z M89.726,2.625h18.598v18.597H89.726V2.625L89.726,2.625z"/>
		<path fill="#FFFFFF" d="M126.765,47.092h1.467v15.499h-1.467V47.092z M123.947,47.092h1.526v15.499h-1.526V47.092z
			 M121.128,47.092h1.526v15.499h-1.526V47.092z M118.31,47.092h1.527v15.499h-1.527V47.092z M115.492,47.092h1.527v15.499h-1.527
			V47.092z M112.733,47.092h1.468v15.499h-1.468V47.092z M111.184,45.542h18.598v18.598h-18.598V45.542L111.184,45.542z"/>
	</g>
	<path fill="#FFFFFF" d="M64.243,94.292c2.833,0,5.13,2.298,5.13,5.13c0,2.833-2.297,5.13-5.13,5.13c-2.834,0-5.13-2.297-5.13-5.13
		C59.113,96.589,61.409,94.292,64.243,94.292"/>
	<path d="M64.243,95.748c0.469,0,0.917,0.088,1.33,0.248c-0.447,0.258-0.75,0.744-0.75,1.298c0,0.829,0.671,1.5,1.5,1.5
		c0.568,0,1.06-0.315,1.315-0.781c0.18,0.434,0.28,0.91,0.28,1.409c0,2.03-1.646,3.675-3.674,3.675
		c-2.029,0-3.675-1.646-3.675-3.675C60.568,97.392,62.214,95.748,64.243,95.748"/>
	<path fill="#FFFFFF" d="M77.882,131.264c-12.706-6.03-19.68-14.226-23.561-23.174c-4.72,1.348-10.394,2.208-16.985,2.578
		c-2.484,0.14-5.096,0.212-7.837,0.212c-3.16,0-6.491-0.094-9.986-0.279c11.652,11.645,25.987,20.611,52.528,20.775
		C74.001,131.375,75.946,131.337,77.882,131.264z"/>
</g>
</svg>
