<?xml version="1.0" encoding="utf-8"?>
<!-- Generator: Adobe Illustrator 16.0.0, SVG Export Plug-In . SVG Version: 6.00 Build 0)  -->
<!DOCTYPE svg PUBLIC "-//W3C//DTD SVG 1.1//EN" "http://www.w3.org/Graphics/SVG/1.1/DTD/svg11.dtd">
<svg version="1.1" id="data_filter" xmlns="http://www.w3.org/2000/svg" xmlns:xlink="http://www.w3.org/1999/xlink" x="0px"
	 y="0px" width="1107.273px" height="818px" viewBox="0 0 1107.273 818" enable-background="new 0 0 1107.273 818"
	 xml:space="preserve">
<g opacity="0.55">
	
		<radialGradient id="SVGID_1_" cx="584.2739" cy="-1016.8242" r="126.2598" gradientTransform="matrix(1.6367 0 0 0.1363 -408.4042 893.9562)" gradientUnits="userSpaceOnUse">
		<stop  offset="0" style="stop-color:#4A4A49"/>
		<stop  offset="0.1826" style="stop-color:#80807F"/>
		<stop  offset="0.3921" style="stop-color:#B1B0B0"/>
		<stop  offset="0.5861" style="stop-color:#D4D4D4"/>
		<stop  offset="0.7583" style="stop-color:#ECECEC"/>
		<stop  offset="0.9021" style="stop-color:#FAFAFA"/>
		<stop  offset="1" style="stop-color:#FFFFFF"/>
	</radialGradient>
	<path opacity="0.5" fill="url(#SVGID_1_)" d="M754.524,755.364c0,9.504-92.517,17.208-206.649,17.208
		c-114.13,0-206.643-7.704-206.643-17.208c0-9.507,92.513-17.211,206.643-17.211C662.007,738.153,754.524,745.857,754.524,755.364z"
		/>
</g>
<linearGradient id="SVGID_2_" gradientUnits="userSpaceOnUse" x1="389.6255" y1="454.7969" x2="723.4263" y2="454.7969">
	<stop  offset="0" style="stop-color:#E5782F"/>
	<stop  offset="0.4306" style="stop-color:#F49633"/>
	<stop  offset="1" style="stop-color:#DA6029"/>
</linearGradient>
<path fill="url(#SVGID_2_)" d="M723.298,339.221c-3.093-30.512-87.825-46.962-166.781-46.962
	c-78.899,0-163.614,16.43-166.745,46.921c-0.111,0.349-0.147,0.699-0.147,1.09v39.469c0,1.357,0.629,2.614,1.648,3.333
	l121.274,84.965v146.572c0,1.026,0.377,1.989,0.999,2.727l32.272-22.656c-13.273,7.967-23.516,12.004-25.32,9.479
	c-2.496-3.486,12.069-18.183,32.534-32.82c20.461-14.64,39.07-23.679,41.566-20.19c1.972,2.758-6.714,12.511-20.538,23.703
	l26.443-18.565v-40.06v-48.188l121.274-84.965c1.021-0.719,1.648-1.976,1.648-3.354v-39.448
	C723.426,339.918,723.373,339.548,723.298,339.221z M686.125,348.895c-14.15,7.185-27.096,12.445-39.561,16.066
	c-5.998,1.754-12.184,3.248-18.224,4.658c-22.057,3.907-47.341,5.977-73.139,5.977c-89.198,0-135.833-22.16-135.833-34.003
	c0-11.87,46.636-34.003,135.833-34.003c89.159,0,135.814,22.133,135.814,34.003C691.017,343.001,689.59,345.905,686.125,348.895z"/>
<rect x="545.128" y="60.418" fill="#676767" width="8.041" height="44.949"/>
<g id="XMLID_15_">
	<g>
		<g>
			<path fill="#676767" d="M622.525,64.141v37.503c0,2.054-1.422,3.722-3.175,3.722h-21.479c-1.753,0-3.173-1.668-3.173-3.722
				V64.141c0-2.054,1.42-3.722,3.173-3.722h21.479C621.103,60.419,622.525,62.087,622.525,64.141z M614.484,98.269V67.516h-11.747
				v30.753H614.484z"/>
		</g>
	</g>
</g>
<g id="XMLID_11_">
	<g>
		<g>
			<path fill="#676767" d="M563.062,124.977v37.503c0,2.054-1.421,3.723-3.174,3.723H538.41c-1.753,0-3.173-1.668-3.173-3.723
				v-37.503c0-2.054,1.42-3.723,3.173-3.723h21.479C561.641,121.254,563.062,122.922,563.062,124.977z M555.022,159.105v-30.753
				h-11.745v30.753H555.022z"/>
		</g>
	</g>
</g>
<g id="XMLID_10_">
	<g>
		<g>
			<path fill="#676767" d="M622.452,124.977v37.503c0,2.054-1.421,3.723-3.174,3.723H597.8c-1.753,0-3.176-1.668-3.176-3.723
				v-37.503c0-2.054,1.423-3.723,3.176-3.723h21.478C621.031,121.254,622.452,122.922,622.452,124.977z M614.413,159.105v-30.753
				h-11.747v30.753H614.413z"/>
		</g>
	</g>
</g>
<g id="XMLID_8_">
	<g>
		<g>
			<path fill="#676767" d="M683.497,124.977v37.503c0,2.054-1.423,3.723-3.176,3.723h-21.478c-1.753,0-3.174-1.668-3.174-3.723
				v-37.503c0-2.054,1.421-3.723,3.174-3.723h21.478C682.074,121.254,683.497,122.922,683.497,124.977z M675.456,159.105v-30.753
				h-11.747v30.753H675.456z"/>
		</g>
	</g>
</g>
<g id="XMLID_7_">
	<g>
		<g>
			<path fill="#676767" d="M624.207,246.709v37.503c0,2.054-1.423,3.723-3.176,3.723h-21.478c-1.753,0-3.174-1.668-3.174-3.723
				v-37.503c0-2.054,1.421-3.723,3.174-3.723h21.478C622.784,242.986,624.207,244.655,624.207,246.709z M616.166,280.836v-30.753
				H604.42v30.753H616.166z"/>
		</g>
	</g>
</g>
<g id="XMLID_6_">
	<g>
		<g>
			<path fill="#676767" d="M685.251,246.709v37.503c0,2.054-1.423,3.723-3.176,3.723h-21.478c-1.753,0-3.174-1.668-3.174-3.723
				v-37.503c0-2.054,1.421-3.723,3.174-3.723h21.478C683.829,242.986,685.251,244.655,685.251,246.709z M677.21,280.836v-30.753
				h-11.747v30.753H677.21z"/>
		</g>
	</g>
</g>
<rect x="544.679" y="242.985" fill="#676767" width="8.041" height="44.95"/>
<rect x="604.59" y="182.516" fill="#676767" width="8.041" height="44.95"/>
<rect x="665.561" y="182.516" fill="#676767" width="8.041" height="44.95"/>
<g id="XMLID_1_">
	<g>
		<g>
			<path fill="#676767" d="M562.613,308.578v37.503c0,2.054-1.421,3.722-3.174,3.722H537.96c-1.753,0-3.173-1.668-3.173-3.722
				v-37.503c0-2.054,1.42-3.722,3.173-3.722h21.479C561.192,304.856,562.613,306.524,562.613,308.578z M554.574,342.707v-30.753
				h-11.746v30.753H554.574z"/>
		</g>
	</g>
</g>
<rect x="606.272" y="304.855" fill="#676767" width="8.043" height="44.95"/>
<rect x="422.491" y="60.418" fill="#676767" width="8.041" height="44.95"/>
<g id="XMLID_16_">
	<g>
		<g>
			<path fill="#676767" d="M440.424,186.239v37.503c0,2.054-1.421,3.723-3.174,3.723h-21.478c-1.753,0-3.173-1.668-3.173-3.723
				v-37.503c0-2.054,1.42-3.723,3.173-3.723h21.478C439.003,182.517,440.424,184.185,440.424,186.239z M432.385,220.368v-30.753
				h-11.746v30.753H432.385z"/>
		</g>
	</g>
</g>
<rect x="484.083" y="182.516" fill="#676767" width="8.043" height="44.95"/>
<rect x="545.128" y="182.516" fill="#676767" width="8.041" height="44.95"/>
<g id="XMLID_17_">
	<g>
		<g>
			<path fill="#676767" d="M502.018,64.141v37.503c0,2.054-1.422,3.722-3.175,3.722h-21.478c-1.753,0-3.173-1.668-3.173-3.722
				V64.141c0-2.054,1.42-3.722,3.173-3.722h21.478C500.596,60.419,502.018,62.087,502.018,64.141z M493.978,98.269V67.516H482.23
				v30.753H493.978z"/>
		</g>
	</g>
</g>
<g id="XMLID_18_">
	<g>
		<g>
			<path fill="#676767" d="M735.798,64.14v37.503c0,2.054-1.423,3.722-3.176,3.722h-21.478c-1.754,0-3.174-1.668-3.174-3.722V64.14
				c0-2.054,1.42-3.722,3.174-3.722h21.478C734.375,60.418,735.798,62.086,735.798,64.14z M727.757,98.269V67.516H716.01v30.753
				H727.757z"/>
		</g>
	</g>
</g>
<rect x="717.863" y="121.253" fill="#676767" width="8.043" height="44.95"/>
<g id="XMLID_22_">
	<g>
		<g>
			<path fill="#676767" d="M395.123,64.141v37.503c0,2.054-1.422,3.722-3.175,3.722H370.47c-1.753,0-3.173-1.668-3.173-3.722V64.141
				c0-2.054,1.42-3.722,3.173-3.722h21.478C393.701,60.419,395.123,62.087,395.123,64.141z M387.082,98.269V67.516h-11.747v30.753
				H387.082z"/>
		</g>
	</g>
</g>
<rect x="771.12" y="60.417" fill="#676767" width="8.043" height="44.95"/>
<path id="path2417" fill="#676767" d="M550.376,707.32c-1.523-1.709-5.333-5.041-8.463-7.405
	c-9.271-7.001-10.534-8.015-14.299-11.481c-6.94-6.393-9.888-12.813-9.878-21.518c0.005-4.25,0.294-5.888,1.484-8.393
	c2.02-4.253,4.994-7.41,8.797-9.342c2.694-1.368,4.022-1.975,8.52-2.001c4.706-0.026,5.696,0.524,8.464,2.044
	c3.368,1.852,6.836,5.806,7.553,8.615l0.442,1.735l1.092-2.39c6.169-13.505,25.865-13.305,32.719,0.335
	c2.176,4.328,2.414,13.565,0.486,18.77c-2.516,6.788-7.24,11.965-18.161,19.895c-7.161,5.203-15.266,13.072-15.83,14.177
	C552.647,711.645,553.27,710.562,550.376,707.32z"/>
<g id="g2221" transform="translate(129.28571,-64.285714)">
</g>
<g id="layer1_1_" transform="translate(-249.30093,-487.59125)">
	<g id="g6395" transform="translate(4.2857143,-5)">
		<g id="g6197" transform="translate(85.151147,3.3852806)">
			<path id="rect6045" fill="#D4732E" d="M961.064,1127.216h63.379c6.832,0,12.373,5.539,12.373,12.374v62.438
				c0,6.835-5.541,12.374-12.373,12.374h-63.379c-6.832,0-12.373-5.539-12.373-12.374v-62.438
				C948.691,1132.755,954.232,1127.216,961.064,1127.216z"/>
			<path id="rect6045-0" fill="#E57F2A" d="M961.031,1129.343h63.445c5.468,0,9.898,4.432,9.898,9.899v63.134
				c0,5.467-4.431,9.899-9.898,9.899h-63.445c-5.468,0-9.898-4.433-9.898-9.899v-63.134
				C951.132,1133.774,955.563,1129.343,961.031,1129.343z"/>
			
				<linearGradient id="rect6045-0-9_1_" gradientUnits="userSpaceOnUse" x1="1193.7034" y1="423.1933" x2="1266.8829" y2="347.6368" gradientTransform="matrix(1 0 0 -1 -237.5396 1556.2234)">
				<stop  offset="0" style="stop-color:#E5782F"/>
				<stop  offset="0.4306" style="stop-color:#F49633"/>
				<stop  offset="1" style="stop-color:#DA6029"/>
			</linearGradient>
			<path id="rect6045-0-9" fill="url(#rect6045-0-9_1_)" d="M962.341,1130.748h60.824c5.242,0,9.491,4.282,9.491,9.564v60.992
				c0,5.282-4.249,9.563-9.491,9.563h-60.824c-5.242,0-9.491-4.281-9.491-9.563v-60.992
				C952.85,1135.03,957.099,1130.748,962.341,1130.748z"/>
			<path id="path6103" fill="#FFFFFF" d="M985.567,1191.747c0,6.989-5.667,12.654-12.657,12.654
				c-6.988,0-12.656-5.665-12.656-12.654c0-6.991,5.668-12.657,12.656-12.657C979.9,1179.09,985.567,1184.756,985.567,1191.747z"/>
			<g id="g6174" transform="translate(-80.559666,0)">
				<rect id="rect6105" x="1041.203" y="1140.341" fill="#FFFFFF" width="30.939" height="8.124"/>
				<rect id="rect6105-0" x="1041.203" y="1152.371" fill="#FFFFFF" width="30.939" height="8.125"/>
				<rect id="rect6105-3" x="1041.203" y="1164.402" fill="#FFFFFF" width="30.939" height="8.126"/>
				<rect id="rect6105-03" x="1074.719" y="1140.183" fill="#FFFFFF" width="30.938" height="8.125"/>
				<rect id="rect6105-0-5" x="1074.719" y="1152.11" fill="#FFFFFF" width="30.938" height="8.126"/>
				<rect id="rect6105-3-0" x="1074.719" y="1164.038" fill="#FFFFFF" width="30.938" height="8.125"/>
				<rect id="rect6105-3-0-7" x="1074.719" y="1175.965" fill="#FFFFFF" width="30.938" height="8.125"/>
			</g>
		</g>
		<g id="g6191" transform="translate(87.171447,74.348491)">
			<g enable-background="new    ">
				<path fill="#5C453A" d="M1097.454,1089.864c0,7.072-2.145,12.636-6.434,16.69c-4.287,4.056-10.164,6.083-17.63,6.083
					c-7.487,0-13.364-2.052-17.63-6.156c-4.267-4.104-6.399-9.644-6.399-16.617c0-7.033,2.133-12.592,6.399-16.677
					c4.266-4.084,10.143-6.126,17.63-6.126c7.466,0,13.343,2.032,17.63,6.097
					C1095.309,1077.223,1097.454,1082.792,1097.454,1089.864z M1084.588,1089.835c0-2.605-0.306-4.824-0.916-6.656
					c-0.611-1.831-1.428-3.335-2.45-4.511c-1.066-1.194-2.272-2.052-3.616-2.571c-1.344-0.519-2.738-0.778-4.182-0.778
					c-1.533,0-2.923,0.24-4.166,0.72c-1.245,0.48-2.445,1.337-3.6,2.571c-1.022,1.137-1.85,2.645-2.483,4.525
					s-0.95,4.124-0.95,6.729c0,2.684,0.301,4.912,0.9,6.685c0.6,1.773,1.422,3.258,2.467,4.452c1.066,1.215,2.276,2.082,3.632,2.601
					c1.354,0.52,2.755,0.778,4.2,0.778c1.466,0,2.887-0.278,4.266-0.837c1.377-0.559,2.566-1.426,3.566-2.601
					c1.066-1.273,1.888-2.758,2.466-4.452C1084.299,1094.796,1084.588,1092.577,1084.588,1089.835z"/>
				<path fill="#5C453A" d="M1149.145,1089.893c0,4.075-1.012,7.724-3.033,10.945c-2.021,3.224-4.578,5.696-7.666,7.42
					c-2.578,1.47-5.383,2.415-8.414,2.836c-3.033,0.422-6.262,0.632-9.684,0.632h-15.529v-43.755h15.396
					c3.488,0,6.754,0.196,9.799,0.588c3.043,0.393,5.898,1.342,8.564,2.851c3.268,1.842,5.844,4.324,7.732,7.449
					S1149.145,1085.662,1149.145,1089.893z M1136.346,1089.805c0-2.88-0.561-5.344-1.684-7.391c-1.121-2.047-2.85-3.648-5.182-4.805
					c-1.689-0.823-3.461-1.273-5.316-1.352s-4.07-0.118-6.648-0.118h-0.232v27.388h0.232c2.799,0,5.16-0.044,7.082-0.133
					c1.922-0.088,3.75-0.611,5.482-1.571c2.045-1.137,3.6-2.704,4.666-4.702S1136.346,1092.684,1136.346,1089.805z"/>
				<path fill="#5C453A" d="M1176.473,1108.229c-0.801,0.588-1.516,1.117-2.15,1.587c-0.633,0.471-1.482,0.94-2.549,1.41
					c-1.045,0.451-2.061,0.794-3.049,1.029c-0.99,0.234-2.373,0.353-4.15,0.353c-3.311,0-6.061-0.979-8.248-2.938
					c-2.189-1.959-3.283-4.428-3.283-7.405c0-2.448,0.555-4.427,1.666-5.936s2.711-2.704,4.799-3.585
					c2.111-0.901,4.633-1.528,7.566-1.881s6.088-0.627,9.465-0.823v-0.176c0-1.822-0.762-3.081-2.283-3.776
					s-3.805-1.043-6.848-1.043c-1.379,0-2.99,0.221-4.834,0.661s-3.643,1.004-5.398,1.689h-1v-7.963
					c1.154-0.294,3.021-0.642,5.6-1.044c2.576-0.401,5.176-0.602,7.799-0.602c6.443,0,11.137,0.945,14.08,2.835
					c2.943,1.891,4.416,4.775,4.416,8.654v22.45h-11.598V1108.229z M1176.473,1103.117v-6.877c-1.979,0.177-3.578,0.329-4.799,0.456
					c-1.223,0.127-2.422,0.377-3.6,0.749c-1.023,0.313-1.816,0.789-2.383,1.425c-0.566,0.638-0.85,1.484-0.85,2.542
					c0,1.548,0.471,2.611,1.416,3.188c0.943,0.578,2.338,0.867,4.182,0.867c1.023,0,2.066-0.206,3.133-0.617
					S1175.606,1103.861,1176.473,1103.117z"/>
				<path fill="#5C453A" d="M1211.034,1112.373c-4.754,0-8.215-0.862-10.381-2.586s-3.25-4.545-3.25-8.463v-15.427h-4.467v-7.171
					h4.467v-9.433h11.666v9.433h11.23v7.171h-11.23v11.695c0,1.155,0.01,2.164,0.033,3.026c0.021,0.862,0.199,1.636,0.533,2.321
					c0.311,0.686,0.859,1.229,1.648,1.631s1.939,0.603,3.449,0.603c0.623,0,1.439-0.118,2.451-0.353
					c1.01-0.235,1.715-0.45,2.115-0.646h1v7.258c-1.266,0.294-2.611,0.524-4.033,0.69S1213.1,1112.373,1211.034,1112.373z"/>
				<path fill="#5C453A" d="M1245.696,1108.229c-0.801,0.588-1.518,1.117-2.15,1.587c-0.633,0.471-1.482,0.94-2.549,1.41
					c-1.045,0.451-2.061,0.794-3.051,1.029c-0.988,0.234-2.371,0.353-4.148,0.353c-3.311,0-6.061-0.979-8.248-2.938
					c-2.189-1.959-3.283-4.428-3.283-7.405c0-2.448,0.555-4.427,1.666-5.936s2.711-2.704,4.799-3.585
					c2.111-0.901,4.633-1.528,7.566-1.881c2.932-0.353,6.088-0.627,9.465-0.823v-0.176c0-1.822-0.762-3.081-2.283-3.776
					s-3.805-1.043-6.85-1.043c-1.377,0-2.988,0.221-4.832,0.661s-3.645,1.004-5.398,1.689h-1v-7.963
					c1.154-0.294,3.021-0.642,5.6-1.044c2.576-0.401,5.176-0.602,7.799-0.602c6.443,0,11.137,0.945,14.08,2.835
					c2.943,1.891,4.416,4.775,4.416,8.654v22.45h-11.598V1108.229z M1245.696,1103.117v-6.877c-1.979,0.177-3.578,0.329-4.799,0.456
					c-1.223,0.127-2.422,0.377-3.6,0.749c-1.023,0.313-1.816,0.789-2.383,1.425c-0.566,0.638-0.85,1.484-0.85,2.542
					c0,1.548,0.471,2.611,1.416,3.188c0.943,0.578,2.338,0.867,4.182,0.867c1.021,0,2.066-0.206,3.133-0.617
					S1244.829,1103.861,1245.696,1103.117z"/>
			</g>
			<g enable-background="new    ">
				<path fill="#676767" d="M1067.937,1122.472c0.661,0.686,1.175,1.536,1.54,2.551c0.366,1.015,0.549,2.173,0.549,3.474
					c0,1.267-0.179,2.411-0.537,3.433c-0.357,1.021-0.875,1.879-1.552,2.571c-0.708,0.729-1.534,1.265-2.48,1.611
					c-0.945,0.347-1.985,0.52-3.122,0.52c-1.175,0-2.232-0.179-3.174-0.535s-1.751-0.889-2.428-1.596
					c-0.67-0.692-1.184-1.546-1.541-2.561s-0.537-2.162-0.537-3.443c0-1.315,0.182-2.47,0.543-3.464
					c0.361-0.993,0.877-1.847,1.547-2.561c0.668-0.693,1.477-1.22,2.422-1.58s2.001-0.54,3.168-0.54
					c1.183,0,2.248,0.186,3.198,0.556C1066.482,1121.279,1067.284,1121.8,1067.937,1122.472z M1067.622,1128.497
					c0-1.035-0.125-1.952-0.373-2.75c-0.25-0.798-0.6-1.459-1.051-1.983c-0.459-0.539-1.014-0.943-1.663-1.213
					c-0.649-0.269-1.379-0.403-2.188-0.403c-0.84,0-1.574,0.131-2.199,0.394c-0.627,0.262-1.182,0.67-1.664,1.223
					c-0.459,0.531-0.811,1.2-1.057,2.005c-0.244,0.805-0.367,1.714-0.367,2.729c0,2.051,0.479,3.62,1.436,4.708
					s2.241,1.632,3.852,1.632c1.611,0,2.893-0.544,3.846-1.632S1067.622,1130.547,1067.622,1128.497z"/>
				<path fill="#676767" d="M1083.319,1130.134c0,1.952-0.519,3.508-1.558,4.666c-1.038,1.158-2.352,1.736-3.938,1.736
					c-0.646,0-1.219-0.066-1.716-0.199c-0.498-0.133-1.008-0.339-1.529-0.619v4.912h-2.194v-16.049h2.194v1.229
					c0.545-0.441,1.149-0.811,1.815-1.107c0.665-0.298,1.391-0.446,2.176-0.446c1.494,0,2.66,0.532,3.496,1.596
					S1083.319,1128.343,1083.319,1130.134z M1081.055,1130.355c0-1.337-0.237-2.374-0.712-3.112s-1.245-1.107-2.311-1.107
					c-0.622,0-1.224,0.124-1.804,0.373c-0.58,0.248-1.13,0.568-1.651,0.96v6.645c0.576,0.252,1.068,0.423,1.477,0.514
					c0.409,0.091,0.878,0.137,1.406,0.137c1.136,0,2.02-0.374,2.649-1.123C1080.741,1132.891,1081.055,1131.797,1081.055,1130.355z"
					/>
				<path fill="#676767" d="M1091.256,1136.579c-2.078,0-3.69-0.526-4.838-1.579c-1.148-1.054-1.722-2.549-1.722-4.487
					c0-1.91,0.556-3.431,1.669-4.561s2.568-1.695,4.365-1.695c0.809,0,1.525,0.105,2.147,0.314c0.622,0.21,1.167,0.539,1.634,0.987
					c0.467,0.447,0.824,0.995,1.074,1.643c0.248,0.647,0.373,1.439,0.373,2.377v1.071h-9.033c0,1.364,0.381,2.407,1.144,3.128
					s1.817,1.081,3.163,1.081c0.482,0,0.955-0.049,1.418-0.147c0.463-0.098,0.881-0.224,1.254-0.378
					c0.397-0.16,0.732-0.316,1.004-0.467c0.273-0.15,0.498-0.292,0.678-0.425h0.128v2.151c-0.257,0.091-0.575,0.205-0.957,0.341
					c-0.382,0.137-0.724,0.243-1.026,0.32c-0.429,0.105-0.816,0.186-1.162,0.241
					C1092.223,1136.551,1091.786,1136.579,1091.256,1136.579z M1093.824,1129.137c-0.016-0.532-0.085-0.99-0.21-1.375
					s-0.304-0.71-0.537-0.977c-0.257-0.294-0.586-0.518-0.986-0.672c-0.4-0.153-0.896-0.23-1.488-0.23
					c-0.583,0-1.079,0.079-1.488,0.236c-0.408,0.157-0.779,0.387-1.113,0.688c-0.328,0.308-0.576,0.649-0.748,1.023
					c-0.171,0.374-0.279,0.81-0.326,1.307H1093.824z"/>
				<path fill="#676767" d="M1108.424,1136.306h-2.193v-6.676c0-0.539-0.029-1.041-0.088-1.506c-0.059-0.466-0.17-0.838-0.334-1.118
					c-0.178-0.294-0.428-0.513-0.746-0.656c-0.318-0.143-0.756-0.215-1.307-0.215c-0.545,0-1.107,0.131-1.688,0.394
					s-1.145,0.604-1.697,1.023v8.754h-2.194v-11.725h2.194v1.302c0.652-0.524,1.299-0.927,1.938-1.207
					c0.637-0.28,1.311-0.42,2.018-0.42c1.285,0,2.289,0.38,3.012,1.139c0.725,0.76,1.086,1.859,1.086,3.302V1136.306z"/>
				<path fill="#676767" d="M1132.852,1128.507c0,1.428-0.32,2.715-0.963,3.862c-0.643,1.148-1.504,2.044-2.586,2.688
					c-0.879,0.497-1.771,0.829-2.678,0.997s-2.064,0.252-3.473,0.252h-4.004v-15.629h3.957c1.635,0,2.916,0.11,3.846,0.33
					c0.93,0.221,1.723,0.523,2.375,0.908c1.121,0.665,1.988,1.549,2.604,2.65
					C1132.543,1125.669,1132.852,1126.982,1132.852,1128.507z M1130.448,1128.476c0-1.204-0.223-2.23-0.666-3.081
					c-0.443-0.85-1.1-1.513-1.973-1.989c-0.613-0.336-1.271-0.577-1.973-0.724c-0.699-0.147-1.57-0.221-2.613-0.221h-1.762v12.061
					h1.762c1.027,0,1.926-0.073,2.695-0.221c0.771-0.146,1.475-0.42,2.113-0.818c0.801-0.49,1.404-1.143,1.809-1.958
					C1130.245,1130.711,1130.448,1129.694,1130.448,1128.476z"/>
				<path fill="#676767" d="M1142.469,1135.057c-0.18,0.119-0.418,0.285-0.719,0.499c-0.299,0.213-0.588,0.383-0.869,0.509
					c-0.389,0.182-0.764,0.321-1.125,0.42c-0.363,0.098-0.871,0.146-1.523,0.146c-0.537,0-1.047-0.091-1.529-0.272
					c-0.482-0.183-0.906-0.438-1.271-0.767c-0.352-0.321-0.631-0.719-0.842-1.191c-0.209-0.472-0.314-0.971-0.314-1.495
					c0-0.813,0.191-1.503,0.572-2.073s0.984-1.023,1.809-1.359c0.73-0.301,1.596-0.509,2.592-0.625
					c0.994-0.115,2.068-0.201,3.221-0.257v-0.378c0-0.462-0.078-0.834-0.234-1.118c-0.154-0.283-0.373-0.502-0.652-0.655
					c-0.281-0.161-0.623-0.268-1.027-0.32s-0.82-0.079-1.25-0.079c-0.506,0-1.1,0.068-1.785,0.205
					c-0.684,0.137-1.369,0.334-2.055,0.593h-0.127v-2.005c0.404-0.104,0.984-0.221,1.738-0.347c0.754-0.125,1.502-0.188,2.24-0.188
					c0.896,0,1.65,0.063,2.266,0.188c0.613,0.126,1.166,0.354,1.656,0.683c0.475,0.322,0.83,0.738,1.063,1.249
					c0.234,0.511,0.35,1.134,0.35,1.868v8.02h-2.182V1135.057z M1142.469,1133.42v-3.254c-0.521,0.042-1.182,0.1-1.979,0.174
					c-0.797,0.073-1.441,0.177-1.932,0.31c-0.584,0.161-1.066,0.407-1.447,0.739c-0.381,0.333-0.572,0.797-0.572,1.392
					c0,0.671,0.211,1.179,0.631,1.521s1.035,0.515,1.844,0.515c0.693,0,1.318-0.135,1.879-0.404S1141.979,1133.812,1142.469,1133.42
					z"/>
				<path fill="#676767" d="M1151.678,1136.537c-1.199,0-2.133-0.306-2.803-0.918c-0.668-0.612-1.002-1.58-1.002-2.902v-6.497
					h-1.482v-1.638h1.482v-3.369h2.193v3.369h4.039v1.638h-4.039v5.573c0,0.595,0.012,1.054,0.035,1.375
					c0.023,0.322,0.113,0.623,0.268,0.903c0.133,0.245,0.348,0.429,0.643,0.551s0.695,0.184,1.201,0.184
					c0.359,0,0.705-0.047,1.039-0.142c0.336-0.095,0.576-0.173,0.725-0.236h0.129v1.774c-0.414,0.104-0.832,0.187-1.256,0.246
					S1152.036,1136.537,1151.678,1136.537z"/>
				<path fill="#676767" d="M1163.01,1135.057c-0.18,0.119-0.418,0.285-0.719,0.499c-0.299,0.213-0.588,0.383-0.869,0.509
					c-0.389,0.182-0.764,0.321-1.125,0.42c-0.363,0.098-0.871,0.146-1.523,0.146c-0.537,0-1.047-0.091-1.529-0.272
					c-0.482-0.183-0.906-0.438-1.271-0.767c-0.352-0.321-0.631-0.719-0.842-1.191c-0.209-0.472-0.314-0.971-0.314-1.495
					c0-0.813,0.191-1.503,0.572-2.073s0.984-1.023,1.809-1.359c0.73-0.301,1.596-0.509,2.592-0.625
					c0.994-0.115,2.068-0.201,3.221-0.257v-0.378c0-0.462-0.078-0.834-0.234-1.118c-0.154-0.283-0.373-0.502-0.652-0.655
					c-0.281-0.161-0.623-0.268-1.027-0.32s-0.82-0.079-1.25-0.079c-0.506,0-1.1,0.068-1.785,0.205
					c-0.684,0.137-1.369,0.334-2.055,0.593h-0.127v-2.005c0.404-0.104,0.984-0.221,1.738-0.347c0.754-0.125,1.502-0.188,2.24-0.188
					c0.896,0,1.65,0.063,2.266,0.188c0.613,0.126,1.166,0.354,1.656,0.683c0.475,0.322,0.83,0.738,1.063,1.249
					c0.234,0.511,0.35,1.134,0.35,1.868v8.02h-2.182V1135.057z M1163.01,1133.42v-3.254c-0.521,0.042-1.182,0.1-1.979,0.174
					c-0.797,0.073-1.441,0.177-1.932,0.31c-0.584,0.161-1.066,0.407-1.447,0.739c-0.381,0.333-0.572,0.797-0.572,1.392
					c0,0.671,0.211,1.179,0.631,1.521s1.035,0.515,1.844,0.515c0.693,0,1.318-0.135,1.879-0.404S1162.52,1133.812,1163.01,1133.42z"
					/>
				<path fill="#676767" d="M1186.889,1125.39c0,0.679-0.135,1.32-0.402,1.926c-0.27,0.605-0.641,1.122-1.115,1.548
					c-0.6,0.532-1.303,0.935-2.111,1.208c-0.811,0.272-1.834,0.409-3.07,0.409h-1.961v5.825h-2.311v-15.629h4.365
					c1.027,0,1.902,0.077,2.625,0.23c0.725,0.154,1.361,0.402,1.914,0.745c0.646,0.399,1.152,0.905,1.518,1.518
					S1186.889,1124.522,1186.889,1125.39z M1184.485,1125.443c0-0.539-0.104-1.008-0.309-1.407c-0.207-0.398-0.52-0.724-0.939-0.976
					c-0.367-0.217-0.793-0.371-1.279-0.462s-1.09-0.137-1.814-0.137h-1.914v6.245h1.576c0.934,0,1.688-0.068,2.264-0.204
					c0.576-0.137,1.055-0.38,1.436-0.729c0.342-0.315,0.592-0.658,0.748-1.029
					C1184.407,1126.374,1184.485,1125.939,1184.485,1125.443z"/>
				<path fill="#676767" d="M1195.829,1126.702h-0.115c-0.164-0.042-0.338-0.068-0.52-0.078c-0.184-0.011-0.402-0.016-0.66-0.016
					c-0.592,0-1.178,0.115-1.762,0.346c-0.584,0.231-1.137,0.574-1.658,1.029v8.323h-2.193v-11.725h2.193v1.742
					c0.803-0.637,1.5-1.086,2.096-1.349c0.596-0.262,1.172-0.394,1.732-0.394c0.227,0,0.395,0.006,0.508,0.016
					c0.113,0.011,0.24,0.026,0.379,0.048V1126.702z"/>
				<path fill="#676767" d="M1208.143,1130.449c0,1.974-0.529,3.497-1.588,4.571c-1.057,1.074-2.467,1.611-4.225,1.611
					c-1.813,0-3.238-0.555-4.277-1.663c-1.039-1.109-1.559-2.615-1.559-4.52c0-1.959,0.535-3.48,1.605-4.565
					c1.068-1.085,2.479-1.627,4.23-1.627c1.758,0,3.168,0.541,4.225,1.622C1207.614,1126.96,1208.143,1128.483,1208.143,1130.449z
					 M1205.879,1130.449c0-1.518-0.309-2.646-0.922-3.385c-0.615-0.738-1.49-1.107-2.627-1.107c-1.145,0-2.025,0.369-2.645,1.107
					c-0.617,0.738-0.928,1.867-0.928,3.385c0,1.47,0.311,2.584,0.928,3.344c0.619,0.759,1.5,1.139,2.645,1.139
					c1.129,0,2.002-0.373,2.621-1.118C1205.569,1133.068,1205.879,1131.947,1205.879,1130.449z"/>
				<path fill="#676767" d="M1214.34,1136.537c-1.199,0-2.133-0.306-2.801-0.918c-0.67-0.612-1.004-1.58-1.004-2.902v-6.497h-1.482
					v-1.638h1.482v-3.369h2.193v3.369h4.039v1.638h-4.039v5.573c0,0.595,0.012,1.054,0.035,1.375
					c0.023,0.322,0.113,0.623,0.268,0.903c0.133,0.245,0.348,0.429,0.643,0.551s0.697,0.184,1.203,0.184
					c0.357,0,0.703-0.047,1.037-0.142c0.336-0.095,0.576-0.173,0.725-0.236h0.129v1.774c-0.414,0.104-0.832,0.187-1.256,0.246
					S1214.698,1136.537,1214.34,1136.537z"/>
				<path fill="#676767" d="M1229.116,1130.449c0,1.974-0.529,3.497-1.588,4.571c-1.057,1.074-2.467,1.611-4.225,1.611
					c-1.813,0-3.238-0.555-4.277-1.663c-1.039-1.109-1.559-2.615-1.559-4.52c0-1.959,0.535-3.48,1.605-4.565s2.48-1.627,4.23-1.627
					c1.758,0,3.168,0.541,4.225,1.622C1228.586,1126.96,1229.116,1128.483,1229.116,1130.449z M1226.852,1130.449
					c0-1.518-0.309-2.646-0.922-3.385c-0.615-0.738-1.49-1.107-2.627-1.107c-1.143,0-2.025,0.369-2.643,1.107
					c-0.619,0.738-0.928,1.867-0.928,3.385c0,1.47,0.309,2.584,0.928,3.344c0.617,0.759,1.5,1.139,2.643,1.139
					c1.129,0,2.002-0.373,2.621-1.118C1226.542,1133.068,1226.852,1131.947,1226.852,1130.449z"/>
				<path fill="#676767" d="M1236.551,1136.569c-0.896,0-1.717-0.125-2.463-0.373c-0.748-0.248-1.389-0.624-1.926-1.128
					s-0.953-1.139-1.25-1.905c-0.295-0.767-0.443-1.667-0.443-2.703c0-1.028,0.154-1.917,0.461-2.666
					c0.309-0.748,0.719-1.378,1.232-1.89c0.514-0.51,1.152-0.904,1.92-1.181c0.766-0.276,1.588-0.414,2.469-0.414
					c0.715,0,1.406,0.091,2.07,0.272c0.666,0.183,1.26,0.393,1.781,0.63v2.215h-0.129c-0.156-0.119-0.355-0.255-0.602-0.409
					c-0.244-0.154-0.543-0.312-0.893-0.473c-0.303-0.14-0.662-0.263-1.074-0.367c-0.412-0.105-0.809-0.157-1.189-0.157
					c-1.137,0-2.049,0.387-2.738,1.159c-0.688,0.773-1.031,1.867-1.031,3.28c0,1.386,0.332,2.465,0.996,3.238
					c0.666,0.773,1.59,1.16,2.773,1.16c0.715,0,1.396-0.133,2.041-0.399c0.646-0.266,1.219-0.608,1.717-1.028h0.129v2.215
					c-0.219,0.091-0.49,0.201-0.818,0.33c-0.326,0.13-0.621,0.227-0.887,0.289c-0.373,0.098-0.707,0.173-1.004,0.226
					C1237.399,1136.543,1237.018,1136.569,1236.551,1136.569z"/>
				<path fill="#676767" d="M1253.124,1130.449c0,1.974-0.529,3.497-1.588,4.571c-1.057,1.074-2.467,1.611-4.225,1.611
					c-1.813,0-3.238-0.555-4.277-1.663c-1.039-1.109-1.559-2.615-1.559-4.52c0-1.959,0.535-3.48,1.605-4.565s2.48-1.627,4.23-1.627
					c1.758,0,3.168,0.541,4.225,1.622C1252.594,1126.96,1253.124,1128.483,1253.124,1130.449z M1250.86,1130.449
					c0-1.518-0.309-2.646-0.922-3.385c-0.615-0.738-1.49-1.107-2.627-1.107c-1.143,0-2.025,0.369-2.643,1.107
					c-0.619,0.738-0.928,1.867-0.928,3.385c0,1.47,0.309,2.584,0.928,3.344c0.617,0.759,1.5,1.139,2.643,1.139
					c1.129,0,2.002-0.373,2.621-1.118C1250.549,1133.068,1250.86,1131.947,1250.86,1130.449z"/>
				<path fill="#676767" d="M1257.618,1136.306h-2.195v-16.332h2.195V1136.306z"/>
			</g>
		</g>
	</g>
</g>
</svg>
