<?xml version="1.0" encoding="utf-8"?>
<!-- Generator: Adobe Illustrator 16.0.0, SVG Export Plug-In . SVG Version: 6.00 Build 0)  -->
<!DOCTYPE svg PUBLIC "-//W3C//DTD SVG 1.1//EN" "http://www.w3.org/Graphics/SVG/1.1/DTD/svg11.dtd">
<svg version="1.1" id="Ebene_1" xmlns="http://www.w3.org/2000/svg" xmlns:xlink="http://www.w3.org/1999/xlink" x="0px" y="0px"
	 width="444px" height="314px" viewBox="70.14 225.445 444 314" enable-background="new 70.14 225.445 444 314"
	 xml:space="preserve">
<rect x="0" y="197.715" display="none" fill="none" width="595.279" height="446.46"/>
<path fill-opacity="0" d="M0,197.715H595.28v446.46H0V197.715z"/>
<path fill="#E2272A" d="M250.691,250.822L250.691,250.822c0-4.597,3.727-8.323,8.323-8.323h65.185c2.208,0,4.325,0.877,5.886,2.438
	c1.561,1.561,2.438,3.678,2.438,5.885v33.292c0,4.597-3.726,8.323-8.323,8.323h-65.185c-4.597,0-8.323-3.726-8.323-8.323V250.822z"
	/>
<path fill="none" stroke="#FFFFFF" stroke-width="4" stroke-linejoin="round" stroke-miterlimit="10" d="M250.691,250.822
	L250.691,250.822c0-4.597,3.727-8.323,8.323-8.323h65.185c2.208,0,4.325,0.877,5.886,2.438c1.561,1.561,2.438,3.678,2.438,5.885
	v33.292c0,4.597-3.726,8.323-8.323,8.323h-65.185c-4.597,0-8.323-3.726-8.323-8.323V250.822z"/>
<path fill="#E2272A" d="M300.299,324.731L300.299,324.731c0-4.597,3.727-8.323,8.323-8.323h65.185c2.208,0,4.325,0.877,5.886,2.438
	c1.561,1.561,2.438,3.678,2.438,5.885v33.292c0,4.597-3.727,8.323-8.323,8.323h-65.185c-4.597,0-8.323-3.726-8.323-8.323V324.731z"
	/>
<path fill="none" stroke="#FFFFFF" stroke-width="4" stroke-linejoin="round" stroke-miterlimit="10" d="M300.299,324.731
	L300.299,324.731c0-4.597,3.727-8.323,8.323-8.323h65.185c2.208,0,4.325,0.877,5.886,2.438c1.561,1.561,2.438,3.678,2.438,5.885
	v33.292c0,4.597-3.727,8.323-8.323,8.323h-65.185c-4.597,0-8.323-3.726-8.323-8.323V324.731z"/>
<path fill="#B7B7B7" d="M202.814,324.731L202.814,324.731c0-4.597,3.726-8.323,8.323-8.323h65.185c2.207,0,4.324,0.877,5.886,2.438
	c1.561,1.561,2.438,3.678,2.438,5.885v33.292c0,4.597-3.727,8.323-8.323,8.323h-65.185c-4.598,0-8.323-3.726-8.323-8.323V324.731z"
	/>
<path fill="none" stroke="#FFFFFF" stroke-width="4" stroke-linejoin="round" stroke-miterlimit="10" d="M202.814,324.731
	L202.814,324.731c0-4.597,3.726-8.323,8.323-8.323h65.185c2.207,0,4.324,0.877,5.886,2.438c1.561,1.561,2.438,3.678,2.438,5.885
	v33.292c0,4.597-3.727,8.323-8.323,8.323h-65.185c-4.598,0-8.323-3.726-8.323-8.323V324.731z"/>
<path fill="#B7B7B7" d="M180.926,404.298L180.926,404.298c0-4.597,3.727-8.323,8.323-8.323h65.185c2.208,0,4.325,0.877,5.886,2.438
	c1.561,1.561,2.438,3.678,2.438,5.885v33.293c0,4.596-3.727,8.322-8.323,8.322h-65.185c-4.597,0-8.323-3.727-8.323-8.322V404.298z"
	/>
<path fill="none" stroke="#FFFFFF" stroke-width="4" stroke-linejoin="round" stroke-miterlimit="10" d="M180.926,404.298
	L180.926,404.298c0-4.597,3.727-8.323,8.323-8.323h65.185c2.208,0,4.325,0.877,5.886,2.438c1.561,1.561,2.438,3.678,2.438,5.885
	v33.293c0,4.596-3.727,8.322-8.323,8.322h-65.185c-4.597,0-8.323-3.727-8.323-8.322V404.298z"/>
<path fill="#B7B7B7" d="M82.403,404.298L82.403,404.298c0-4.597,3.727-8.323,8.323-8.323h65.186c2.207,0,4.324,0.877,5.885,2.438
	c1.562,1.561,2.438,3.678,2.438,5.885v33.293c0,4.596-3.727,8.322-8.323,8.322H90.726c-4.597,0-8.323-3.727-8.323-8.322V404.298z"/>
<path fill="none" stroke="#FFFFFF" stroke-width="4" stroke-linejoin="round" stroke-miterlimit="10" d="M82.403,404.298
	L82.403,404.298c0-4.597,3.727-8.323,8.323-8.323h65.186c2.207,0,4.324,0.877,5.885,2.438c1.562,1.561,2.438,3.678,2.438,5.885
	v33.293c0,4.596-3.727,8.322-8.323,8.322H90.726c-4.597,0-8.323-3.727-8.323-8.322V404.298z"/>
<path fill="#B7B7B7" d="M180.926,480.185L180.926,480.185c0-4.596,3.727-8.322,8.323-8.322h65.186c2.207,0,4.324,0.877,5.886,2.438
	c1.561,1.561,2.438,3.678,2.438,5.885v33.293c0,4.596-3.727,8.322-8.323,8.322h-65.186c-4.597,0-8.323-3.727-8.323-8.322V480.185z"
	/>
<path fill="none" stroke="#FFFFFF" stroke-width="4" stroke-linejoin="round" stroke-miterlimit="10" d="M180.926,480.185
	L180.926,480.185c0-4.596,3.727-8.322,8.323-8.322h65.186c2.207,0,4.324,0.877,5.886,2.438c1.561,1.561,2.438,3.678,2.438,5.885
	v33.293c0,4.596-3.727,8.322-8.323,8.322h-65.186c-4.597,0-8.323-3.727-8.323-8.322V480.185z"/>
<path fill-opacity="0" d="M291.607,292.437l-47.868,23.964"/>
<path fill="none" stroke="#FFFFFF" stroke-width="4" stroke-linejoin="round" stroke-miterlimit="10" d="M291.607,292.437
	l-47.868,23.964"/>
<path fill-opacity="0" d="M291.607,292.437l49.606,23.964"/>
<path fill="none" stroke="#FFFFFF" stroke-width="4" stroke-linejoin="round" stroke-miterlimit="10" d="M291.607,292.437
	l41.952,20.266"/>
<path fill="#FFFFFF" stroke="#FFFFFF" stroke-width="4" stroke-miterlimit="10" d="M333.559,312.703l-3.725,1.298l8.114,0.822
	l-5.688-5.845L333.559,312.703z"/>
<path fill-opacity="0" d="M341.215,366.347L341.215,366.347"/>
<path fill="none" stroke="#FFFFFF" stroke-width="4" stroke-linejoin="round" stroke-miterlimit="10" d="M341.215,366.347
	L341.215,366.347"/>
<path fill-opacity="0" d="M243.729,366.347l-21.893,29.627"/>
<path fill="none" stroke="#FFFFFF" stroke-width="4" stroke-linejoin="round" stroke-miterlimit="10" d="M243.729,366.347
	l-21.893,29.627"/>
<path fill-opacity="0" d="M221.842,445.914v25.955"/>
<path fill="none" stroke="#FFFFFF" stroke-width="4" stroke-linejoin="round" stroke-miterlimit="10" d="M221.842,445.914v25.955"/>
<path fill-opacity="0" d="M243.729,366.347l-120.403,29.627"/>
<path fill="#FFFFFF" stroke="#FFFFFF" stroke-width="4" stroke-linejoin="round" stroke-miterlimit="10" d="M243.729,366.347
	l-120.403,29.627"/>
<path fill="#E2272A" d="M423.715,404.298L423.715,404.298c0-4.597,3.727-8.323,8.323-8.323h65.186c2.207,0,4.324,0.877,5.885,2.438
	c1.562,1.561,2.438,3.678,2.438,5.885v33.293c0,4.596-3.727,8.322-8.323,8.322h-65.186c-4.597,0-8.323-3.727-8.323-8.322V404.298z"
	/>
<path fill="none" stroke="#FFFFFF" stroke-width="4" stroke-linejoin="round" stroke-miterlimit="10" d="M423.715,404.298
	L423.715,404.298c0-4.597,3.727-8.323,8.323-8.323h65.186c2.207,0,4.324,0.877,5.885,2.438c1.562,1.561,2.438,3.678,2.438,5.885
	v33.293c0,4.596-3.727,8.322-8.323,8.322h-65.186c-4.597,0-8.323-3.727-8.323-8.322V404.298z"/>
<path fill="#E2272A" d="M325.192,404.298L325.192,404.298c0-4.597,3.727-8.323,8.324-8.323H398.7c2.207,0,4.324,0.877,5.886,2.438
	c1.561,1.561,2.438,3.678,2.438,5.885v33.293c0,4.596-3.727,8.322-8.323,8.322h-65.185c-4.598,0-8.324-3.727-8.324-8.322V404.298z"
	/>
<path fill="none" stroke="#FFFFFF" stroke-width="4" stroke-linejoin="round" stroke-miterlimit="10" d="M325.192,404.298
	L325.192,404.298c0-4.597,3.727-8.323,8.324-8.323H398.7c2.207,0,4.324,0.877,5.886,2.438c1.561,1.561,2.438,3.678,2.438,5.885
	v33.293c0,4.596-3.727,8.322-8.323,8.322h-65.185c-4.598,0-8.324-3.727-8.324-8.322V404.298z"/>
<path fill-opacity="0" d="M341.215,366.347l24.9,29.627"/>
<path fill="none" stroke="#FFFFFF" stroke-width="4" stroke-linejoin="round" stroke-miterlimit="10" d="M341.215,366.347
	l19.432,23.12"/>
<path fill="#FFFFFF" stroke="#FFFFFF" stroke-width="4" stroke-miterlimit="10" d="M360.647,389.467l-3.931-0.34l7.066,4.072
	l-2.795-7.661L360.647,389.467z"/>
<path fill-opacity="0" d="M341.215,366.347l123.411,29.627"/>
<path fill="none" stroke="#FFFFFF" stroke-width="4" stroke-linejoin="round" stroke-miterlimit="10" d="M341.215,366.347
	l115.146,27.643"/>
<path fill="#FFFFFF" stroke="#FFFFFF" stroke-width="4" stroke-miterlimit="10" d="M456.361,393.99l-3.363,2.061l8.103-0.923
	l-6.801-4.501L456.361,393.99z"/>
<path fill="#B7B7B7" d="M82.404,480.185L82.404,480.185c0-4.596,3.726-8.322,8.323-8.322h65.185c2.207,0,4.324,0.877,5.886,2.438
	c1.561,1.561,2.438,3.678,2.438,5.885v33.293c0,4.596-3.727,8.322-8.323,8.322H90.727c-4.598,0-8.323-3.727-8.323-8.322V480.185z"/>
<path fill="none" stroke="#FFFFFF" stroke-width="4" stroke-linejoin="round" stroke-miterlimit="10" d="M82.404,480.185
	L82.404,480.185c0-4.596,3.726-8.322,8.323-8.322h65.185c2.207,0,4.324,0.877,5.886,2.438c1.561,1.561,2.438,3.678,2.438,5.885
	v33.293c0,4.596-3.727,8.322-8.323,8.322H90.727c-4.598,0-8.323-3.727-8.323-8.322V480.185z"/>
<path fill="#E2272A" d="M423.716,480.185L423.716,480.185c0-4.596,3.727-8.322,8.323-8.322h65.185c2.208,0,4.324,0.877,5.886,2.438
	c1.561,1.561,2.438,3.678,2.438,5.885v33.293c0,4.596-3.727,8.322-8.323,8.322h-65.185c-4.597,0-8.323-3.727-8.323-8.322V480.185z"
	/>
<path fill="none" stroke="#FFFFFF" stroke-width="4" stroke-linejoin="round" stroke-miterlimit="10" d="M423.716,480.185
	L423.716,480.185c0-4.596,3.727-8.322,8.323-8.322h65.185c2.208,0,4.324,0.877,5.886,2.438c1.561,1.561,2.438,3.678,2.438,5.885
	v33.293c0,4.596-3.727,8.322-8.323,8.322h-65.185c-4.597,0-8.323-3.727-8.323-8.322V480.185z"/>
<path fill="#E2272A" d="M325.193,480.185L325.193,480.185c0-4.596,3.727-8.322,8.323-8.322H398.7c2.208,0,4.325,0.877,5.886,2.438
	s2.438,3.678,2.438,5.885v33.293c0,4.596-3.727,8.322-8.323,8.322h-65.185c-4.597,0-8.323-3.727-8.323-8.322V480.185z"/>
<path fill="none" stroke="#FFFFFF" stroke-width="4" stroke-linejoin="round" stroke-miterlimit="10" d="M325.193,480.185
	L325.193,480.185c0-4.596,3.727-8.322,8.323-8.322H398.7c2.208,0,4.325,0.877,5.886,2.438s2.438,3.678,2.438,5.885v33.293
	c0,4.596-3.727,8.322-8.323,8.322h-65.185c-4.597,0-8.323-3.727-8.323-8.322V480.185z"/>
<path fill-opacity="0" d="M123.319,445.906v25.957"/>
<path fill="none" stroke="#FFFFFF" stroke-width="4" stroke-linejoin="round" stroke-miterlimit="10" d="M123.319,445.906v25.957"/>
<path fill-opacity="0" d="M221.842,445.914v25.955"/>
<path fill="none" stroke="#FFFFFF" stroke-width="4" stroke-linejoin="round" stroke-miterlimit="10" d="M221.842,445.914v25.955"/>
<path fill-opacity="0" d="M366.109,445.906v25.957"/>
<path fill="none" stroke="#FFFFFF" stroke-width="4" stroke-linejoin="round" stroke-miterlimit="10" d="M366.109,445.906v17.457"/>
<path fill="#FFFFFF" stroke="#FFFFFF" stroke-width="4" stroke-miterlimit="10" d="M366.109,463.363l-2.79-2.791l2.79,7.664
	l2.789-7.664L366.109,463.363z"/>
<path fill-opacity="0" d="M464.631,445.914v25.955"/>
<path fill="none" stroke="#FFFFFF" stroke-width="4" stroke-linejoin="round" stroke-miterlimit="10" d="M464.631,445.914v17.455"/>
<path fill="#FFFFFF" stroke="#FFFFFF" stroke-width="4" stroke-miterlimit="10" d="M464.631,463.369l-2.789-2.789l2.789,7.664
	l2.789-7.664L464.631,463.369z"/>
<path fill-opacity="0" d="M252.258,247.133h78.784v39.646h-78.784V247.133z"/>
<path fill="#FFFFFF" d="M280.487,267.838c0-1.072,0.165-2.028,0.494-2.868c0.336-0.84,0.785-1.55,1.347-2.132
	c0.562-0.587,1.214-1.033,1.957-1.337c0.749-0.304,1.541-0.455,2.374-0.455c0.808,0,1.537,0.171,2.189,0.513
	c0.659,0.336,1.205,0.727,1.638,1.172l-1.599,1.812c-0.336-0.31-0.672-0.549-1.008-0.717c-0.336-0.174-0.729-0.262-1.182-0.262
	c-0.446,0-0.866,0.097-1.26,0.291c-0.388,0.194-0.727,0.468-1.018,0.823c-0.291,0.355-0.52,0.792-0.688,1.308
	c-0.168,0.517-0.252,1.098-0.252,1.744c0,1.337,0.284,2.374,0.853,3.11c0.574,0.73,1.337,1.095,2.286,1.095
	c0.53,0,0.991-0.104,1.386-0.31c0.4-0.213,0.759-0.491,1.075-0.833l1.608,1.763c-0.543,0.633-1.162,1.111-1.86,1.434
	c-0.691,0.317-1.44,0.475-2.248,0.475c-0.833,0-1.621-0.143-2.363-0.427c-0.736-0.284-1.383-0.704-1.938-1.259
	c-0.555-0.562-0.994-1.256-1.317-2.083C280.645,269.87,280.487,268.917,280.487,267.838z M292.656,261.289h3.652
	c0.988,0,1.879,0.126,2.674,0.377c0.794,0.252,1.476,0.64,2.044,1.163c0.568,0.517,1.005,1.179,1.309,1.986
	c0.304,0.808,0.455,1.767,0.455,2.878c0,1.111-0.151,2.076-0.455,2.896s-0.733,1.499-1.289,2.035
	c-0.556,0.536-1.221,0.937-1.996,1.201c-0.774,0.265-1.637,0.397-2.586,0.397h-3.808V261.289z M296.123,271.859
	c0.556,0,1.057-0.071,1.502-0.213c0.452-0.148,0.836-0.384,1.153-0.707c0.322-0.323,0.571-0.75,0.746-1.279
	c0.181-0.53,0.271-1.186,0.271-1.967c0-0.769-0.09-1.412-0.271-1.928c-0.175-0.523-0.424-0.94-0.746-1.25
	c-0.317-0.316-0.701-0.54-1.153-0.668c-0.445-0.136-0.946-0.204-1.502-0.204h-0.552v8.216H296.123z"/>
<path fill-opacity="0" d="M301.822,321.549h78.785v39.646h-78.785V321.549z"/>
<path fill="#FFFFFF" d="M330.051,342.255c0-1.072,0.164-2.028,0.494-2.868c0.336-0.84,0.784-1.55,1.347-2.132
	c0.562-0.587,1.214-1.033,1.957-1.337c0.749-0.304,1.54-0.455,2.374-0.455c0.807,0,1.537,0.171,2.189,0.513
	c0.658,0.336,1.204,0.727,1.637,1.172l-1.599,1.812c-0.335-0.31-0.671-0.549-1.007-0.717c-0.336-0.174-0.73-0.261-1.183-0.261
	c-0.445,0-0.865,0.097-1.26,0.291c-0.387,0.194-0.727,0.468-1.017,0.824c-0.291,0.355-0.521,0.791-0.688,1.308
	c-0.168,0.517-0.252,1.098-0.252,1.744c0,1.337,0.284,2.374,0.853,3.11c0.575,0.729,1.338,1.095,2.287,1.095
	c0.529,0,0.991-0.104,1.386-0.31c0.4-0.213,0.759-0.491,1.075-0.833l1.608,1.764c-0.543,0.633-1.163,1.111-1.86,1.434
	c-0.691,0.317-1.44,0.475-2.248,0.475c-0.833,0-1.621-0.142-2.364-0.426c-0.736-0.284-1.382-0.704-1.938-1.26
	c-0.556-0.562-0.995-1.256-1.317-2.083C330.209,344.287,330.051,343.333,330.051,342.255z M342.219,335.706h3.653
	c0.988,0,1.879,0.126,2.674,0.377c0.794,0.252,1.476,0.64,2.044,1.163c0.568,0.517,1.005,1.179,1.309,1.986
	c0.304,0.808,0.455,1.767,0.455,2.878c0,1.111-0.151,2.077-0.455,2.897s-0.733,1.499-1.289,2.035
	c-0.556,0.536-1.221,0.937-1.996,1.201c-0.774,0.265-1.637,0.397-2.587,0.397h-3.808V335.706z M345.688,346.276
	c0.556,0,1.056-0.071,1.502-0.213c0.452-0.148,0.836-0.384,1.152-0.707c0.323-0.323,0.572-0.75,0.746-1.279
	c0.182-0.53,0.271-1.186,0.271-1.967c0-0.769-0.09-1.412-0.271-1.928c-0.174-0.523-0.423-0.94-0.746-1.25
	c-0.316-0.316-0.7-0.539-1.152-0.668c-0.446-0.136-0.946-0.204-1.502-0.204h-0.552v8.216H345.688z"/>
<path fill-opacity="0" d="M326.715,401.117H405.5v39.646h-78.785V401.117z"/>
<path fill="#FFFFFF" d="M354.945,421.823c0-1.072,0.164-2.028,0.494-2.868c0.336-0.839,0.784-1.55,1.347-2.131
	c0.562-0.588,1.214-1.034,1.957-1.337c0.749-0.304,1.54-0.456,2.374-0.456c0.807,0,1.537,0.171,2.189,0.514
	c0.659,0.336,1.204,0.727,1.638,1.172l-1.599,1.812c-0.336-0.31-0.672-0.549-1.008-0.717c-0.336-0.174-0.73-0.262-1.183-0.262
	c-0.445,0-0.865,0.097-1.259,0.291c-0.388,0.194-0.728,0.468-1.018,0.824c-0.291,0.355-0.521,0.791-0.688,1.308
	c-0.168,0.517-0.252,1.098-0.252,1.744c0,1.336,0.284,2.373,0.854,3.109c0.574,0.73,1.337,1.096,2.286,1.096
	c0.529,0,0.991-0.104,1.386-0.311c0.4-0.213,0.759-0.49,1.075-0.834l1.608,1.764c-0.543,0.633-1.163,1.111-1.86,1.434
	c-0.691,0.318-1.44,0.477-2.248,0.477c-0.833,0-1.621-0.143-2.364-0.428c-0.736-0.283-1.382-0.703-1.938-1.26
	c-0.556-0.561-0.994-1.256-1.317-2.082C355.103,423.855,354.945,422.902,354.945,421.823z M367.113,415.273h3.653
	c0.988,0,1.879,0.126,2.674,0.378s1.476,0.64,2.044,1.163c0.568,0.517,1.005,1.179,1.309,1.986c0.304,0.807,0.455,1.767,0.455,2.877
	c0,1.111-0.151,2.076-0.455,2.896s-0.733,1.5-1.289,2.035c-0.556,0.537-1.221,0.938-1.996,1.201
	c-0.774,0.266-1.637,0.398-2.587,0.398h-3.808V415.273z M370.581,425.843c0.556,0,1.057-0.07,1.502-0.213
	c0.452-0.148,0.837-0.385,1.153-0.707c0.322-0.322,0.571-0.75,0.746-1.279c0.181-0.529,0.271-1.186,0.271-1.967
	c0-0.769-0.09-1.411-0.271-1.928c-0.175-0.523-0.424-0.939-0.746-1.25c-0.316-0.317-0.701-0.54-1.153-0.668
	c-0.445-0.136-0.946-0.204-1.502-0.204h-0.552v8.216H370.581z"/>
<path fill-opacity="0" d="M425.239,401.121h78.785v39.646h-78.785V401.121z"/>
<path fill="#FFFFFF" d="M453.468,421.827c0-1.072,0.164-2.028,0.494-2.868c0.335-0.84,0.784-1.55,1.347-2.132
	c0.562-0.588,1.214-1.033,1.957-1.337c0.749-0.304,1.54-0.456,2.373-0.456c0.808,0,1.538,0.171,2.19,0.514
	c0.658,0.336,1.204,0.727,1.637,1.172l-1.599,1.812c-0.336-0.31-0.672-0.549-1.007-0.717c-0.336-0.174-0.73-0.262-1.183-0.262
	c-0.445,0-0.865,0.097-1.26,0.291c-0.387,0.194-0.727,0.468-1.017,0.823c-0.291,0.355-0.521,0.792-0.688,1.308
	s-0.252,1.098-0.252,1.744c0,1.338,0.284,2.373,0.853,3.109c0.575,0.73,1.337,1.096,2.287,1.096c0.529,0,0.991-0.104,1.386-0.311
	c0.4-0.213,0.759-0.49,1.075-0.832l1.608,1.762c-0.543,0.633-1.163,1.111-1.86,1.436c-0.691,0.316-1.44,0.475-2.248,0.475
	c-0.833,0-1.621-0.143-2.364-0.428c-0.736-0.283-1.382-0.703-1.938-1.26c-0.556-0.561-0.995-1.256-1.317-2.082
	C453.626,423.859,453.468,422.906,453.468,421.827z M465.636,415.277h3.653c0.988,0,1.879,0.125,2.674,0.377
	c0.794,0.252,1.476,0.64,2.044,1.163c0.568,0.517,1.005,1.179,1.309,1.986c0.304,0.808,0.455,1.767,0.455,2.877
	c0,1.111-0.151,2.076-0.455,2.896s-0.733,1.5-1.289,2.035c-0.556,0.537-1.221,0.938-1.996,1.201
	c-0.774,0.266-1.637,0.398-2.587,0.398h-3.808V415.277z M469.105,425.847c0.556,0,1.056-0.07,1.502-0.213
	c0.452-0.148,0.836-0.385,1.153-0.707c0.322-0.322,0.571-0.75,0.745-1.279c0.182-0.529,0.271-1.186,0.271-1.967
	c0-0.769-0.09-1.411-0.271-1.928c-0.174-0.523-0.423-0.94-0.745-1.25c-0.317-0.316-0.701-0.54-1.153-0.668
	c-0.446-0.136-0.946-0.204-1.502-0.204h-0.552v8.216H469.105z"/>
<path fill-opacity="0" d="M326.715,477.003H405.5v39.646h-78.785V477.003z"/>
<path fill="#FFFFFF" d="M354.945,497.71c0-1.072,0.164-2.029,0.494-2.869c0.336-0.84,0.784-1.549,1.347-2.131
	c0.562-0.588,1.214-1.033,1.957-1.338c0.749-0.303,1.54-0.455,2.374-0.455c0.807,0,1.537,0.172,2.189,0.514
	c0.659,0.336,1.204,0.727,1.638,1.172l-1.599,1.813c-0.336-0.311-0.672-0.549-1.008-0.717c-0.336-0.174-0.73-0.262-1.183-0.262
	c-0.445,0-0.865,0.098-1.259,0.291c-0.388,0.193-0.728,0.469-1.018,0.822c-0.291,0.355-0.521,0.793-0.688,1.309
	c-0.168,0.518-0.252,1.098-0.252,1.744c0,1.338,0.284,2.373,0.854,3.109c0.574,0.73,1.337,1.096,2.286,1.096
	c0.529,0,0.991-0.104,1.386-0.311c0.4-0.213,0.759-0.49,1.075-0.832l1.608,1.762c-0.543,0.635-1.163,1.111-1.86,1.436
	c-0.691,0.316-1.44,0.475-2.248,0.475c-0.833,0-1.621-0.143-2.364-0.428c-0.736-0.283-1.382-0.703-1.938-1.258
	c-0.556-0.563-0.994-1.258-1.317-2.084C355.103,499.742,354.945,498.789,354.945,497.71z M367.113,491.16h3.653
	c0.988,0,1.879,0.127,2.674,0.379s1.476,0.639,2.044,1.162c0.568,0.518,1.005,1.178,1.309,1.986
	c0.304,0.807,0.455,1.766,0.455,2.877s-0.151,2.076-0.455,2.896s-0.733,1.5-1.289,2.035c-0.556,0.537-1.221,0.938-1.996,1.201
	c-0.774,0.266-1.637,0.398-2.587,0.398h-3.808V491.16z M370.581,501.73c0.556,0,1.057-0.07,1.502-0.213
	c0.452-0.148,0.837-0.385,1.153-0.707c0.322-0.322,0.571-0.75,0.746-1.279c0.181-0.529,0.271-1.186,0.271-1.967
	c0-0.768-0.09-1.41-0.271-1.928c-0.175-0.523-0.424-0.939-0.746-1.25c-0.316-0.316-0.701-0.539-1.153-0.668
	c-0.445-0.137-0.946-0.203-1.502-0.203h-0.552v8.215H370.581z"/>
<path fill-opacity="0" d="M425.239,477.017h78.785v39.646h-78.785V477.017z"/>
<path fill="#FFFFFF" d="M453.468,497.722c0-1.072,0.164-2.027,0.494-2.867c0.335-0.84,0.784-1.551,1.347-2.131
	c0.562-0.588,1.214-1.035,1.957-1.338c0.749-0.303,1.54-0.455,2.373-0.455c0.808,0,1.538,0.17,2.19,0.514
	c0.658,0.336,1.204,0.727,1.637,1.172l-1.599,1.813c-0.336-0.311-0.672-0.549-1.007-0.717c-0.336-0.176-0.73-0.262-1.183-0.262
	c-0.445,0-0.865,0.096-1.26,0.289c-0.387,0.195-0.727,0.469-1.017,0.824c-0.291,0.355-0.521,0.791-0.688,1.309
	c-0.168,0.516-0.252,1.098-0.252,1.744c0,1.336,0.284,2.373,0.853,3.109c0.575,0.73,1.337,1.096,2.287,1.096
	c0.529,0,0.991-0.104,1.386-0.311c0.4-0.213,0.759-0.49,1.075-0.834l1.608,1.764c-0.543,0.633-1.163,1.111-1.86,1.434
	c-0.691,0.316-1.44,0.475-2.248,0.475c-0.833,0-1.621-0.141-2.364-0.426c-0.736-0.283-1.382-0.703-1.938-1.26
	c-0.556-0.563-0.995-1.256-1.317-2.082C453.626,499.753,453.468,498.802,453.468,497.722z M465.636,491.173h3.653
	c0.988,0,1.879,0.125,2.674,0.377c0.794,0.252,1.476,0.641,2.044,1.164c0.568,0.516,1.005,1.178,1.309,1.986
	c0.304,0.807,0.455,1.766,0.455,2.877s-0.151,2.076-0.455,2.896s-0.733,1.498-1.289,2.035c-0.556,0.535-1.221,0.936-1.996,1.201
	c-0.774,0.266-1.637,0.396-2.587,0.396h-3.808V491.173z M469.105,501.744c0.556,0,1.056-0.07,1.502-0.213
	c0.452-0.148,0.836-0.385,1.153-0.707c0.322-0.324,0.571-0.75,0.745-1.279c0.182-0.529,0.271-1.186,0.271-1.967
	c0-0.77-0.09-1.412-0.271-1.928c-0.174-0.523-0.423-0.939-0.745-1.25c-0.317-0.316-0.701-0.539-1.153-0.67
	c-0.446-0.135-0.946-0.203-1.502-0.203h-0.552v8.217H469.105z"/>
</svg>
