<?xml version="1.0" encoding="utf-8"?>
<!-- Generator: Adobe Illustrator 16.0.0, SVG Export Plug-In . SVG Version: 6.00 Build 0)  -->
<!DOCTYPE svg PUBLIC "-//W3C//DTD SVG 1.1//EN" "http://www.w3.org/Graphics/SVG/1.1/DTD/svg11.dtd">
<svg version="1.1" id="Layer_1" xmlns="http://www.w3.org/2000/svg" xmlns:xlink="http://www.w3.org/1999/xlink" x="0px" y="0px"
	 width="595.279px" height="841.89px" viewBox="0 0 595.279 841.89" enable-background="new 0 0 595.279 841.89"
	 xml:space="preserve">
<g>
	<path fill="#68217A" d="M437.531,374.216c1.488-7.144,2.382-13.692,2.382-20.24c0-51.194-41.67-92.566-92.864-92.566
		c-35.717,0-67.861,20.239-83.339,51.789c-12.501-12.501-29.467-19.347-47.027-19.347c-36.609,0-66.671,29.764-66.671,66.671
		c0,5.06,0.595,10.12,1.785,15.18c-30.359,12.204-48.218,37.8-48.218,69.052c0,41.67,34.229,74.41,77.982,74.41h5.06
		c0.893,38.396,32.146,69.053,70.541,69.053c25.895,0,49.407-13.988,61.611-36.014c9.227,8.035,21.132,12.5,33.633,12.5
		c26.49,0,48.218-19.941,51.194-45.539h7.441c43.753,0,77.981-32.74,77.981-74.707C489.023,412.016,469.378,385.526,437.531,374.216
		"/>
	<path fill="#FFFFFF" d="M407.469,409.337l5.655-13.394l-1.786-1.488l-12.501-10.715v-11.013l13.989-12.501l-5.357-13.394h-2.083
		l-16.371,1.191l-7.738-7.739l0.893-18.751l-13.394-5.655l-1.488,1.488l-10.715,12.501H345.56l-12.501-13.989l-13.394,5.357
		l0.298,2.084l1.19,16.37l-7.739,7.738l-18.453-0.893l-5.655,13.394l1.786,1.488l12.501,10.715v11.013l-13.989,12.501l5.06,13.394
		l2.084-0.298l16.37-1.19l7.738,7.739l-0.893,18.75l13.394,5.656l1.488-1.787l10.715-12.5h11.013l12.501,13.988l13.394-5.357
		l-0.298-2.082l-1.19-16.371l7.739-7.738L407.469,409.337z M339.607,405.468c-15.179-6.548-22.322-23.811-15.774-38.991
		s23.812-22.323,38.991-15.775c15.18,6.548,22.322,23.811,15.774,38.991C372.348,404.873,354.786,411.718,339.607,405.468"/>
	<path fill="#FFFFFF" d="M322.046,476.902v-14.584l-2.083-0.596l-15.478-5.061l-4.167-10.119l8.036-16.965l-10.417-10.418
		l-2.083,0.893l-14.585,7.441l-10.12-4.168l-6.25-17.56h-14.584l-0.298,2.083l-5.06,15.477l-10.12,4.168l-16.966-8.037
		l-10.417,10.417l0.893,2.084l7.441,14.584l-4.167,10.119l-17.561,5.953v14.584l2.083,0.596l15.478,5.061l4.167,10.119
		l-8.036,16.965l10.417,10.418l2.084-0.893l14.584-7.441l10.12,4.166l6.25,17.563h14.584l0.596-2.084l5.06-15.479l10.12-4.166
		l16.965,8.037l10.418-10.418l-0.894-2.084l-7.44-14.584l4.167-10.119L322.046,476.902z M258.054,499.523
		c-16.37,0-29.764-13.395-29.764-29.766c0-16.369,13.394-29.764,29.764-29.764s29.764,13.395,29.764,29.764
		C287.818,486.128,274.722,499.523,258.054,499.523"/>
	<path fill="#B8D432" d="M369.073,385.526c-4.167,9.822-15.478,14.584-25.3,10.417c-9.821-4.167-14.584-15.478-10.417-25.299
		c4.167-9.822,15.478-14.584,25.3-10.417C368.776,364.394,373.24,375.704,369.073,385.526"/>
	<path fill="#B8D432" d="M277.401,469.757c0,10.715-8.632,19.348-19.347,19.348s-19.347-8.633-19.347-19.348
		s8.632-19.346,19.347-19.346S277.401,459.042,277.401,469.757"/>
</g>
<path fill="#68217A" d="M450.031,553.097c0-1.191-0.298-2.084-0.298-3.273c0.298-17.264,14.287-30.955,31.55-30.955
	c10.418,0,19.942,5.061,25.896,13.096c3.869-2.381,8.036-3.57,12.798-3.57c13.097,0,24.109,10.715,24.109,23.811v1.785
	c8.929,4.465,13.691,11.906,13.691,21.43c0,14.883-11.906,26.193-27.383,26.193H462.83c-15.478,0-27.383-11.607-27.383-26.193
	C435.448,565.3,440.805,557.562,450.031,553.097z"/>
<path fill="#68217A" d="M560.754,279.269c0-1.191,0.297-2.083,0.297-3.274c-0.297-17.263-14.286-30.955-31.55-30.955
	c-10.417,0-19.941,5.06-25.895,13.096c-3.869-2.381-8.036-3.571-12.799-3.571c-13.096,0-24.108,10.715-24.108,23.811v1.786
	c-8.93,4.465-13.691,11.906-13.691,21.43c0,14.882,11.905,26.192,27.383,26.192h67.564c15.478,0,27.383-11.608,27.383-26.192
	C575.338,291.472,569.981,283.733,560.754,279.269z"/>
<path fill="#68217A" d="M138.105,553.097c0-1.191,0.298-2.084,0.298-3.273c-0.298-17.264-14.287-30.955-31.55-30.955
	c-10.417,0-19.941,5.061-25.895,13.096c-3.869-2.381-8.036-3.57-12.799-3.57c-13.096,0-24.108,10.715-24.108,23.811v1.785
	c-8.93,4.465-13.691,11.906-13.691,21.43c0,14.883,11.905,26.193,27.383,26.193h67.564c15.477,0,27.383-11.607,27.383-26.193
	C152.69,565.3,147.332,557.562,138.105,553.097z"/>
</svg>
